<svg width="42" height="39" viewBox="0 0 42 39" fill="none" xmlns="http://www.w3.org/2000/svg">
<path d="M1.75 1.6665H8.75L13.44 23.9832C13.6 24.7505 14.0383 25.4398 14.6782 25.9303C15.3181 26.4209 16.1187 26.6815 16.94 26.6665H33.95C34.7713 26.6815 35.5719 26.4209 36.2118 25.9303C36.8517 25.4398 37.29 24.7505 37.45 23.9832L40.25 9.99984H10.5M17.5 34.9998C17.5 35.9203 16.7165 36.6665 15.75 36.6665C14.7835 36.6665 14 35.9203 14 34.9998C14 34.0794 14.7835 33.3332 15.75 33.3332C16.7165 33.3332 17.5 34.0794 17.5 34.9998ZM36.75 34.9998C36.75 35.9203 35.9665 36.6665 35 36.6665C34.0335 36.6665 33.25 35.9203 33.25 34.9998C33.25 34.0794 34.0335 33.3332 35 33.3332C35.9665 33.3332 36.75 34.0794 36.75 34.9998Z" stroke="#B3B3B3" stroke-width="4" stroke-linecap="round" stroke-linejoin="round"/>
</svg>
