<svg width="90" height="39" viewBox="0 0 90 39" fill="none" xmlns="http://www.w3.org/2000/svg">
<path d="M51.352 13.0135C52.2606 13.0135 52.9972 12.3024 52.9972 11.4252C52.9972 10.548 52.2606 9.83691 51.352 9.83691C50.4434 9.83691 49.7068 10.548 49.7068 11.4252C49.7068 12.3024 50.4434 13.0135 51.352 13.0135Z" fill="#5B9EDD"/>
<path d="M44.1555 11.5781V25.3119H47.2174V10.8069H44.8683C44.4749 10.8069 44.1564 11.1519 44.1564 11.5781H44.1555Z" fill="#3D3A39"/>
<path d="M49.8215 15.4389V25.3109H52.8835V14.6677H50.5343C50.1409 14.6677 49.8224 15.0127 49.8224 15.4389H49.8215Z" fill="#3D3A39"/>
<path d="M61.1772 14.4204C59.7826 14.4204 58.8007 15.2031 58.3667 15.6312V14.6679H56.0176C55.6241 14.6679 55.3057 15.0129 55.3057 15.4391V29.5685H58.3676V24.882C58.8325 25.2633 59.4606 25.5337 60.3101 25.5337C63.1665 25.5337 65.3595 22.8608 65.3595 19.494C65.3595 16.1272 63.0977 14.4194 61.1781 14.4194L61.1772 14.4204ZM60.1716 24.3955C59.5435 24.3955 58.8775 23.7524 58.3667 23.1083V17.4011C58.8431 16.8879 59.6538 16.153 60.3542 16.153C61.4048 16.153 62.3875 17.7126 62.3875 19.99C62.3875 22.2673 61.4278 24.3955 60.1716 24.3955Z" fill="#3D3A39"/>
<path d="M71.1844 14.4204C68.4885 14.4204 67.5976 15.0397 67.5976 15.0397L67.9178 15.7822C67.9178 15.7822 68.9234 15.3866 70.5686 15.3866C72.3964 15.3866 72.579 16.4512 72.579 17.7633V18.3749C72.1874 18.2507 71.4375 18.0596 70.4998 18.0596C69.106 18.0596 66.6387 18.654 66.6387 21.7474C66.6387 24.8409 68.8326 25.5347 70.2714 25.5347C71.1138 25.5347 71.9924 25.0607 72.579 24.667V25.312H75.641V17.7623C75.641 15.5347 73.882 14.4204 71.1853 14.4204H71.1844ZM71.0018 24.1232C69.7227 24.1232 68.9225 23.3061 68.9225 21.7962C68.9225 20.2862 70.3393 19.3459 71.4587 19.3459C72.0224 19.3459 72.3709 19.5399 72.5782 19.7329V23.4237C72.2174 23.7629 71.6793 24.1232 71.0018 24.1232Z" fill="#3D3A39"/>
<path d="M87.7897 14.4204H85.7352L82.9785 21.2218L82.9027 21.0613L79.7604 14.4194H76.6235L81.4162 24.5513L81.5309 24.7931L81.029 26.0307C80.2553 27.6935 78.0394 27.5827 78.0394 27.5827V28.9751C78.0394 28.9751 78.993 29.062 79.6846 28.9751C80.3427 28.8929 81.8088 28.4179 82.5216 26.7789L83.9859 23.3453L87.7906 14.4204H87.7897Z" fill="#3D3A39"/>
<path d="M36.5875 10.8079H35.2881L34.2322 13.1874L28.8467 25.3119H30.9162L31.9827 22.9113H38.3959L39.4245 25.3119H42.8013L36.9651 11.6899L36.5866 10.8079H36.5875ZM37.961 21.8964H32.4335L35.2466 15.5603L37.961 21.8964Z" fill="#3D3A39"/>
<path d="M25.4699 10.1543V27.9668C25.4478 30.1916 23.7779 31.9854 21.7217 31.9854H5.31464C3.24425 31.9854 1.56641 30.1677 1.56641 27.9248V10.1543C1.56641 7.91141 3.24425 6.09375 5.31464 6.09375H21.7217C23.7921 6.09375 25.4699 7.91141 25.4699 10.1543Z" fill="#5B9EDD"/>
<path d="M17.5402 20.6484C18.7681 18.0939 19.5833 15.3971 19.5833 15.3971H14.8426V13.588H20.6851V12.4861H14.8426V9.5752H12.1229V12.4861H6.27962V13.588H12.1221V15.3971H7.20852V16.3651H16.703C16.703 16.3651 16.1764 18.1178 15.2934 19.8523C12.7466 18.9999 10.3966 18.4055 8.50968 18.4055C3.98604 18.4055 2.98216 20.8682 3.19564 23.1197C3.36854 24.9164 4.60178 27.5396 8.37207 27.5396C11.816 27.5396 14.5956 25.4009 16.307 22.855C19.57 24.4825 23.0166 26.4875 25.4672 27.9668V23.696C22.8763 22.7336 20.1478 21.6107 17.5376 20.6484H17.5402ZM7.82602 26.0182C4.63971 26.0182 4.14659 24.0725 4.0919 22.9114C4.03985 21.8955 4.67323 19.989 8.27062 19.989C9.60883 19.989 11.7304 20.7287 14.1131 21.8067C12.7669 23.7227 10.6092 26.0182 7.82602 26.0182Z" fill="white"/>
</svg>
