<svg width="61" height="27" viewBox="0 0 61 27" fill="none" xmlns="http://www.w3.org/2000/svg">
<g clip-path="url(#clip0_68_833)">
<path d="M43.8718 9.81869V6.18553H38.2994V3.77562H43.8718V0H34.2041V16.9386H43.8718V13.1526H38.2994V9.81869H43.8718Z" fill="#FF5900"/>
<path d="M51.5001 8.79758L49.0629 6.18553H43.8718L48.792 11.5624L43.8718 16.9386H48.905L51.2971 14.3058L53.7114 16.9386H58.9238L53.9602 11.5402L58.8567 6.18553H53.8464L51.5001 8.79758Z" fill="#FF5900"/>
<path d="M30.126 0V6.93206H30.081C29.1775 5.92289 28.0497 5.57191 26.7411 5.57191C24.06 5.57191 22.0402 7.34511 21.3315 9.68817C20.5221 7.10635 18.4368 5.52336 15.3449 5.52336C12.8341 5.52336 10.8511 6.61928 9.81667 8.40522V6.18553H4.6264V3.77562H10.2905V0H0V16.9386H4.6264V9.81869H9.23806C9.10057 10.3416 9.02691 10.9019 9.02691 11.4932C9.02691 15.0261 11.8029 17.506 15.3449 17.506C18.3239 17.506 20.2872 16.1459 21.325 13.6667H17.3598C16.8238 14.4125 16.417 14.6329 15.3449 14.6329C14.1018 14.6329 13.0297 13.5784 13.0297 12.3281H21.1032C21.4534 15.1343 23.7016 17.5546 26.7861 17.5546C28.1168 17.5546 29.3354 16.9179 30.0802 15.8434H30.1252V16.9402H34.2032V0H30.126ZM13.159 9.86883C13.416 8.79281 14.2745 8.09005 15.3458 8.09005C16.5251 8.09005 17.3394 8.77132 17.5538 9.86883C17.6438 9.86883 13.159 9.86883 13.159 9.86883ZM27.6503 14.3599C26.147 14.3599 25.2123 12.9974 25.2123 11.5752C25.2123 10.0551 26.025 8.59304 27.6503 8.59304C29.3354 8.59304 30.0065 10.0551 30.0065 11.5752C30.0065 13.0165 29.2953 14.3599 27.6503 14.3599Z" fill="#2A007C"/>
<path d="M34.2048 25.4075V19.3381H37.6536V19.791H34.7736V22.029H37.5316V22.4818H34.7736V24.9538H37.782V25.4075H34.2048Z" fill="#2A007C"/>
<path d="M38.1937 25.4083L39.8755 23.2284L38.2805 21.1663H38.927L40.2291 22.8511L41.505 21.1663H42.1515L40.5311 23.2284L42.2202 25.4083H41.5655L40.1685 23.6048L38.8411 25.4083H38.1937Z" fill="#2A007C"/>
<path fill-rule="evenodd" clip-rule="evenodd" d="M42.7882 27H43.3144V24.7954C43.6246 25.2825 44.0985 25.5085 44.7024 25.5085C46.0471 25.5085 46.624 24.4277 46.624 23.2865C46.624 22.1468 46.0471 21.066 44.7024 21.066C44.0551 21.066 43.6238 21.3 43.2972 21.8037L43.2801 21.1663H42.762C42.7882 21.5865 42.7882 22.0131 42.7882 22.4325V27ZM44.6419 21.4926C45.6755 21.4926 46.0642 22.3816 46.0642 23.2865C46.0642 24.1922 45.6763 25.0804 44.6419 25.0804C43.668 25.0804 43.3144 24.3012 43.3144 23.2865C43.3144 22.2725 43.668 21.4926 44.6419 21.4926Z" fill="#2A007C"/>
<path d="M49.328 21.5594C48.4572 21.5594 48.1544 22.2725 48.1544 23.0095V25.4083H47.6282V22.4142C47.6282 22.0035 47.62 21.5857 47.6028 21.1663H48.1217L48.1552 21.7783C48.4138 21.2928 48.8459 21.066 49.4229 21.066C49.5007 21.066 49.5866 21.0739 49.6643 21.0827V21.5944L49.6478 21.5919L49.627 21.5887C49.523 21.5728 49.4356 21.5594 49.328 21.5594Z" fill="#2A007C"/>
<path fill-rule="evenodd" clip-rule="evenodd" d="M51.73 25.1217C50.7733 25.1217 50.3084 24.3338 50.3084 23.3788H53.4879C53.4879 22.2471 53.1171 21.066 51.7291 21.066C50.3583 21.066 49.7462 22.1476 49.7462 23.3629C49.7462 24.5527 50.333 25.5085 51.6604 25.5085C52.6515 25.5085 53.2121 25.0549 53.4453 24.1667H52.9453C52.816 24.6442 52.4706 25.1217 51.73 25.1217ZM52.9281 22.9936H50.3248C50.4279 22.0035 50.9459 21.4504 51.6956 21.4512C52.5238 21.4512 52.9281 22.1635 52.9281 22.9936Z" fill="#2A007C"/>
<path d="M55.5413 25.5085C54.6451 25.5085 53.9732 25.0971 53.9732 24.1667H54.4995C54.4995 24.8034 54.9299 25.1217 55.5683 25.1217C56.1633 25.1217 56.6281 24.8448 56.6281 24.2765C56.6281 23.7811 56.1195 23.6392 55.5709 23.4862L55.5167 23.4711C54.8276 23.2785 54.0772 23.0684 54.0772 22.2471C54.0772 21.3342 54.8612 21.066 55.5945 21.066C56.4382 21.066 57.0684 21.3835 57.0938 22.2638H56.5675C56.5422 21.7616 56.1714 21.4766 55.6108 21.4766C55.1714 21.4766 54.6369 21.6438 54.6369 22.1969C54.6369 22.7007 55.1714 22.8432 55.7401 22.9936L55.741 22.9938C56.4315 23.1776 57.1887 23.3791 57.1887 24.2009C57.1879 25.156 56.43 25.5085 55.5413 25.5085Z" fill="#2A007C"/>
<path d="M57.6192 24.1667C57.6192 25.0971 58.2911 25.5085 59.188 25.5085C60.076 25.5085 60.8346 25.156 60.8363 24.2009C60.8363 23.3796 60.0791 23.1778 59.3898 22.9941L59.3877 22.9936C58.8181 22.8432 58.2837 22.7007 58.2837 22.1969C58.2837 21.6438 58.8181 21.4766 59.2576 21.4766C59.8182 21.4766 60.1889 21.7616 60.2143 22.2638H60.7405C60.7152 21.3835 60.085 21.066 59.2412 21.066C58.5079 21.066 57.7239 21.3342 57.7239 22.2471C57.7239 23.0684 58.4736 23.2785 59.1627 23.4711C59.181 23.4762 59.1993 23.4813 59.2175 23.4864C59.7659 23.6393 60.2749 23.7813 60.2749 24.2765C60.2749 24.8448 59.81 25.1217 59.215 25.1217C58.5759 25.1217 58.1454 24.8034 58.1454 24.1667H57.6192Z" fill="#2A007C"/>
</g>
<defs>
<clipPath id="clip0_68_833">
<rect width="61" height="27" fill="white"/>
</clipPath>
</defs>
</svg>
