<svg width="92" height="36" viewBox="0 0 92 36" fill="none" xmlns="http://www.w3.org/2000/svg">
<path d="M89.5089 14.5605C89.2276 12.4183 88.4415 10.4674 87.066 9.03933C85.6062 7.69378 83.6119 6.9247 81.4222 6.64954C79.3168 6.37437 77.8837 6.45692 77.8837 6.45692C77.8837 6.45692 76.452 6.40189 74.3452 6.64954C72.1554 6.9247 70.1612 7.69378 68.7013 9.03933C67.3259 10.4674 66.5397 12.4183 66.2584 14.5605C65.9771 16.6201 66.0334 18.0221 66.0334 18.0221C66.0334 18.0221 65.9771 19.4226 66.2303 21.4836C66.5116 23.6258 67.2977 25.5767 68.6732 27.0048C70.133 28.3503 72.1273 29.1194 74.3171 29.3946C76.4224 29.6697 77.8555 29.5872 77.8555 29.5872C77.8555 29.5872 79.2872 29.6422 81.394 29.3946C83.5838 29.1194 85.578 28.3503 87.0379 27.0048C88.4133 25.5767 89.1995 23.6258 89.4808 21.4836C89.7621 19.424 89.6777 18.0221 89.6777 18.0221C89.6777 18.0221 89.7902 16.6215 89.5089 14.5605Z" fill="#1E4BC6"/>
<path d="M70.3862 14.643H72.5197C72.8572 14.643 73.1371 14.698 73.4184 14.8081C73.6996 14.9181 73.9233 15.0832 74.1201 15.2745C74.317 15.4657 74.4858 15.6858 74.5969 15.961C74.7094 16.2362 74.7657 16.51 74.7657 16.8126C74.7657 17.1153 74.7094 17.3891 74.5969 17.6643C74.4844 17.9394 74.3156 18.1596 74.1201 18.3508C73.9247 18.542 73.6715 18.7085 73.4184 18.8172C73.1652 18.9273 72.8572 18.9823 72.5197 18.9823H71.5647V20.7131H70.4129V14.6416H70.3848L70.3862 14.643ZM71.538 15.6872V17.9119H72.4367C72.6055 17.9119 72.7742 17.8844 72.9135 17.8294C73.0527 17.7743 73.1666 17.6918 73.2791 17.5817C73.3916 17.4717 73.4479 17.3616 73.5041 17.224C73.5604 17.0864 73.5885 16.9489 73.5885 16.7851C73.5885 16.6214 73.5604 16.4824 73.5041 16.3462C73.4479 16.2087 73.3635 16.0986 73.2791 15.9885C73.1666 15.8785 73.0541 15.7959 72.9135 15.7409C72.7728 15.6858 72.6041 15.6583 72.4367 15.6583H71.538V15.6858V15.6872ZM77.435 20.7145C77.1256 20.7145 76.8457 20.6594 76.5363 20.5494C76.255 20.4393 75.9752 20.2742 75.7502 20.083C75.5251 19.8628 75.3296 19.6152 75.189 19.3139C75.0484 19.0126 74.964 18.6549 74.964 18.2696C74.964 17.8844 75.0202 17.5281 75.1609 17.2254C75.3015 16.9227 75.4984 16.6764 75.722 16.4563C75.9456 16.2362 76.2269 16.0986 76.5082 15.9899C76.8176 15.8798 77.0975 15.8248 77.435 15.8248C77.7725 15.8248 78.0806 15.8798 78.3337 15.9899C78.615 16.1 78.8386 16.2651 79.0355 16.4563V15.8248H80.1873V20.7145H79.0355V20.0279C78.8667 20.2481 78.615 20.4132 78.3337 20.5494C78.0524 20.6594 77.7725 20.7145 77.435 20.7145ZM77.6319 19.6977C77.8569 19.6977 78.0524 19.6702 78.2212 19.5877C78.39 19.5051 78.5587 19.4226 78.698 19.285C78.8372 19.1474 78.923 19.0098 79.0074 18.8461C79.0917 18.681 79.1199 18.4884 79.1199 18.2972C79.1199 18.1059 79.0917 17.9119 79.0074 17.7482C78.923 17.5831 78.8386 17.418 78.698 17.3093C78.5573 17.1717 78.4167 17.0892 78.2212 17.0066C78.0243 16.8966 77.8274 16.8691 77.6319 16.8691C77.4364 16.8691 77.2381 16.8966 77.0426 16.9791C76.8457 17.0617 76.7051 17.1442 76.5659 17.2818C76.4266 17.4194 76.3127 17.557 76.2565 17.7207C76.1721 17.8858 76.1439 18.0784 76.1439 18.2696C76.1439 18.4609 76.1721 18.6535 76.2565 18.8186C76.3408 18.9837 76.4534 19.1488 76.5659 19.2864C76.7065 19.4239 76.8753 19.5065 77.0426 19.589C77.2114 19.6441 77.4083 19.6991 77.6319 19.6991M81.7878 15.8537L83.1914 19.1777L84.4824 15.8537H85.6905L82.7427 22.9405H81.5628L82.6021 20.4957L80.5797 15.8537H81.7878Z" fill="white"/>
<path d="M53.4619 13.874V22.0877H50.4297L48.3525 15.3296H48.2962L48.4087 22.0877H46.3301V13.874H49.4748L51.4409 20.3844H51.469L51.3565 13.874H53.4619Z" fill="#1E4BC6"/>
<path d="M9.82556 22.1702L11.3979 13.874H15.1614L16.7338 22.1702H14.4582L13.3078 14.6156H13.2797L12.0997 22.1702H9.82556Z" fill="#1E4BC6"/>
<path d="M27.6839 13.874L27.8808 22.1702H25.7473L25.691 14.6981H25.6348L24.2312 22.1702H22.0682L20.6646 14.6981H20.6083L20.5521 22.1702H18.4186L18.6141 13.874H22.0963L23.1356 20.2193H23.1638L24.2312 13.874H27.6839Z" fill="#1E4BC6"/>
<path d="M40.9673 20.9071C41.5566 20.9071 41.7535 20.5218 41.7816 20.3031C41.8098 20.2205 41.8098 20.0829 41.8098 19.9743V13.8752H43.9714V19.8367C43.9714 20.0018 43.9433 20.3031 43.9433 20.3856C43.8026 21.9238 42.5397 22.4452 40.9659 22.4452C39.3922 22.4452 38.1574 21.9499 38.0181 20.3856C38.0181 20.3031 37.99 20.0004 37.99 19.8367V13.8752H40.1516V20.0279C40.1516 20.138 40.1516 20.248 40.1797 20.3581C40.2079 20.5232 40.3766 20.9071 40.9659 20.9071" fill="#1E4BC6"/>
<path d="M6.2308 19.808C6.31518 20.0006 6.28705 20.2744 6.25892 20.412C6.17454 20.6871 6.00577 20.9609 5.41649 20.9609C4.88347 20.9609 4.57406 20.6582 4.57406 20.2193V19.4227H2.29993V20.0542C2.29993 21.9226 3.78789 22.4716 5.38837 22.4716C6.98884 22.4716 8.19693 21.9501 8.39242 20.5757C8.50493 19.8616 8.42055 19.3952 8.39242 19.2026C8.02676 17.4718 4.79768 16.9504 4.57406 15.9612C4.54594 15.7961 4.54594 15.631 4.57406 15.5223C4.63032 15.2471 4.82721 14.9733 5.36024 14.9733C5.86513 14.9733 6.14641 15.276 6.14641 15.7149V16.2363H8.25178V15.6599C8.25178 13.8465 6.59505 13.5728 5.38696 13.5728C3.87087 13.5728 2.63465 14.0667 2.41103 15.4136C2.35478 15.7713 2.35478 16.1001 2.43916 16.5404C2.77669 18.2698 5.80888 18.7376 6.22939 19.8093" fill="#1E4BC6"/>
<path d="M33.8341 19.8078C33.9185 20.0004 33.8903 20.2467 33.8622 20.4117C33.806 20.6869 33.6091 20.9607 33.0479 20.9607C32.4868 20.9607 32.2055 20.658 32.2055 20.2191V19.4225H29.9595V20.054C29.9595 21.8949 31.4474 22.4438 33.0198 22.4438C34.5921 22.4438 35.8002 21.9485 35.9957 20.5755C36.1082 19.8614 36.0238 19.395 35.9957 19.2299C35.63 17.4991 32.4572 17.0052 32.2336 16.0435C32.1774 15.8784 32.2055 15.7133 32.2336 15.6046C32.2899 15.3295 32.4868 15.0557 32.9917 15.0557C33.4966 15.0557 33.7778 15.3584 33.7778 15.7973V16.3187H35.8832V15.7422C35.8832 13.9564 34.2265 13.6826 33.0465 13.6826C31.5585 13.6826 30.3223 14.149 30.0987 15.4959C30.0425 15.8537 30.0143 16.1825 30.1268 16.5952C30.4348 18.271 33.4122 18.7374 33.8327 19.8091" fill="#1E4BC6"/>
<path d="M58.6849 20.8231C59.3023 20.8231 59.4992 20.4379 59.5555 20.2191C59.5836 20.1366 59.5836 19.999 59.5836 19.9165V18.7085H58.713V17.4992H61.7171V19.7239C61.7171 19.8889 61.7171 19.999 61.689 20.2728C61.5483 21.7835 60.201 22.3324 58.6849 22.3324C57.1688 22.3324 55.8482 21.7835 55.7076 20.2728C55.6794 19.9976 55.6794 19.8876 55.6794 19.7239V16.2348C55.6794 16.0972 55.7076 15.8234 55.7076 15.6858C55.9045 14.1201 57.1674 13.6262 58.6849 13.6262C60.2024 13.6262 61.5216 14.1201 61.6608 15.6858C61.689 15.9335 61.689 16.2348 61.689 16.2348V16.5099H59.5555V16.0435C59.5555 16.0435 59.5555 15.8509 59.5273 15.7133C59.4992 15.5207 59.3304 15.1094 58.6849 15.1094C58.0394 15.1094 57.8987 15.5207 57.8425 15.7133C57.8143 15.8234 57.8144 15.961 57.8144 16.0986V19.8889C57.8144 19.999 57.8143 20.1091 57.8425 20.1916C57.8425 20.4668 58.0675 20.8231 58.6849 20.8231Z" fill="#1E4BC6"/>
</svg>
