<svg width="85" height="36" viewBox="0 0 85 36" fill="none" xmlns="http://www.w3.org/2000/svg">
<path fill-rule="evenodd" clip-rule="evenodd" d="M41.0678 13.9403C41.8471 12.9176 43.0594 12.0713 44.4982 12.0713C47.7421 12.0713 50.2932 14.9135 50.2932 18.4187C50.2932 22.0721 47.7287 24.7733 44.6514 24.7733C43.0128 24.7733 41.7606 23.8846 41.301 23.1441H41.2543V28.5112C41.2543 28.5112 41.241 28.5747 41.221 28.5958C41.201 28.617 41.1677 28.6311 41.1411 28.6311H38.2569C38.2569 28.6311 38.197 28.617 38.177 28.5958C38.157 28.5747 38.1437 28.5394 38.1437 28.5112V12.1982C38.1437 12.1982 38.157 12.1348 38.177 12.1136C38.197 12.0924 38.2303 12.0783 38.2569 12.0783H40.9546C40.9546 12.0783 41.0145 12.0924 41.0345 12.1136C41.0545 12.1348 41.0678 12.17 41.0678 12.1982V13.9473V13.9403ZM44.2517 21.663C44.0119 21.6701 43.7721 21.6489 43.5324 21.5995C42.9395 21.4655 42.3933 21.1552 41.967 20.6897C41.5407 20.2313 41.2543 19.6459 41.1478 19.0112C41.1144 18.8278 41.1011 18.6444 41.0945 18.4611C41.0945 18.2565 41.1078 18.052 41.1411 17.8475C41.2477 17.2127 41.5341 16.6274 41.9604 16.1689C42.3867 15.7105 42.9262 15.3931 43.5257 15.2591C43.7655 15.2027 44.0053 15.1815 44.2451 15.1886C44.6381 15.1886 45.0244 15.2803 45.3841 15.4425C45.7504 15.6047 46.0768 15.8445 46.3566 16.1478C46.6363 16.451 46.8495 16.8037 46.996 17.1916C47.1426 17.5795 47.2158 17.9956 47.2092 18.4187C47.2092 18.8419 47.1426 19.258 46.996 19.6459C46.8495 20.0338 46.6297 20.3935 46.3566 20.6968C46.0768 21 45.7504 21.2398 45.3841 21.4021C45.0244 21.5643 44.6381 21.6559 44.2517 21.663Z" fill="#5A31F4"/>
<path d="M22.3373 14.5187C21.6712 13.0376 20.4056 12.0855 18.5006 12.0855C17.9145 12.0996 17.3416 12.2477 16.8221 12.5298C16.3025 12.8119 15.8496 13.221 15.5032 13.7147L15.4366 13.8063V8.00195C15.4366 8.00195 15.4233 7.93847 15.4033 7.91026C15.3833 7.88911 15.35 7.875 15.3167 7.875H12.6257C12.6257 7.875 12.5657 7.88911 12.5458 7.91026C12.5258 7.93142 12.5125 7.96669 12.5125 8.00195V24.6464C12.5125 24.6464 12.5258 24.7099 12.5458 24.731C12.5657 24.7522 12.599 24.7663 12.6257 24.7663H15.5099C15.5099 24.7663 15.5698 24.7522 15.5965 24.731C15.6164 24.7099 15.6298 24.6746 15.6298 24.6464V17.5513C15.6298 16.169 16.4957 15.1957 17.8878 15.1957C19.4065 15.1957 19.7928 16.5216 19.7928 17.8687V24.6464C19.7928 24.6464 19.8062 24.7099 19.8261 24.731C19.8461 24.7522 19.8794 24.7663 19.9061 24.7663H22.7836C22.7836 24.7663 22.8435 24.7522 22.8702 24.731C22.8902 24.7099 22.9035 24.6746 22.9035 24.6464V17.4597C22.9035 17.2128 22.9035 16.973 22.8702 16.7403C22.8235 15.9715 22.637 15.2169 22.3373 14.5187Z" fill="#5A31F4"/>
<path d="M7.94322 16.9872C7.94322 16.9872 6.47782 16.6205 5.93829 16.4724C5.39875 16.3243 4.4529 16.0139 4.4529 15.2593C4.4529 14.5046 5.21225 14.2649 5.98491 14.2649C6.75758 14.2649 7.61684 14.4623 7.68345 15.3721C7.68345 15.4074 7.70343 15.4356 7.72341 15.4568C7.7434 15.4779 7.7767 15.492 7.81 15.492L10.6542 15.4779C10.6542 15.4779 10.6875 15.4779 10.7008 15.4638C10.7142 15.4568 10.7275 15.4497 10.7408 15.4356C10.7541 15.4215 10.7608 15.4074 10.7675 15.3933C10.7675 15.3792 10.7741 15.358 10.7675 15.3439C10.5943 12.4382 8.18302 11.4014 5.96493 11.4014C3.33387 11.3873 1.40887 13.2281 1.40887 15.2593C1.40887 16.7404 1.80186 18.1298 4.91251 19.096C5.4587 19.2652 6.19806 19.4839 6.84417 19.6743C7.6235 19.907 8.04314 20.2526 8.04314 20.7957C8.04314 21.4304 7.17722 21.8748 6.32462 21.8748C5.09235 21.8748 4.21311 21.3881 4.13984 20.5206C4.13984 20.4854 4.11986 20.4572 4.09988 20.436C4.07989 20.4148 4.04659 20.4007 4.01995 20.4007L1.1824 20.4148C1.1824 20.4148 1.14909 20.4148 1.13577 20.4219C1.12245 20.4219 1.10913 20.436 1.0958 20.4501C1.08248 20.4642 1.07582 20.4783 1.06916 20.4924C1.06916 20.5065 1.0625 20.5277 1.0625 20.5418C1.19572 23.2853 3.69356 24.7593 6.02488 24.7593C9.49522 24.7593 11.0672 22.6929 11.0672 20.7534C11.0672 19.8436 10.874 17.7701 7.95654 16.9802L7.94322 16.9872Z" fill="#5A31F4"/>
<path d="M29.6046 11.3591C26.9136 11.3591 25.5748 12.3254 24.4957 13.1012L24.4624 13.1223C24.4091 13.1646 24.3691 13.2211 24.3558 13.2916C24.3425 13.3621 24.3558 13.4326 24.3825 13.4961L25.4482 15.4356C25.4682 15.4709 25.4948 15.5061 25.5281 15.5273C25.5614 15.5485 25.6014 15.5696 25.6347 15.5767C25.6747 15.5837 25.7146 15.5767 25.7479 15.5767C25.7879 15.5626 25.8212 15.5485 25.8479 15.5202L25.9344 15.4497C26.4873 14.956 27.3732 14.3001 29.5247 14.1238C30.7236 14.0251 31.7561 14.3565 32.5154 15.1041C33.3547 15.9222 33.8543 17.2411 33.8543 18.6375C33.8543 21.2047 32.4288 22.8198 30.1308 22.848C28.2391 22.8339 26.9669 21.7901 26.9669 20.2526C26.9669 19.4345 27.3133 18.8985 27.9993 18.3695C28.0526 18.3272 28.0859 18.2708 28.1059 18.2073C28.1192 18.1439 28.1059 18.0733 28.0793 18.0099L27.1268 16.0986C27.1268 16.0986 27.0868 16.0351 27.0535 16.0069C27.0268 15.9857 26.9935 15.9646 26.9536 15.9505C26.9203 15.9364 26.8803 15.9364 26.8403 15.9434C26.8004 15.9434 26.7671 15.9646 26.7338 15.9857C25.6614 16.6557 24.3425 17.89 24.4158 20.2597C24.5024 23.2712 26.867 25.5774 29.9443 25.6691H30.3107C33.9675 25.5422 36.6052 22.6717 36.6052 18.7716C36.6052 15.1958 34.1407 11.3662 29.5913 11.3662L29.6046 11.3591Z" fill="#5A31F4"/>
<path fill-rule="evenodd" clip-rule="evenodd" d="M56.2415 7.91748H80.8603C82.5588 7.91748 83.9376 9.3774 83.9376 11.1758V25.4435C83.9376 27.242 82.5588 28.7019 80.8603 28.7019H56.2415C54.543 28.7019 53.1642 27.242 53.1642 25.4435V11.1758C53.1642 9.3774 54.543 7.91748 56.2415 7.91748ZM61.7634 19.223C63.815 19.223 65.287 17.6361 65.287 15.4145C65.287 13.1929 63.815 11.6061 61.7634 11.6061H58.1399C58.0999 11.6061 58.0533 11.6272 58.0267 11.6554C57.9933 11.6907 57.98 11.733 57.98 11.7753V22.3121C57.98 22.3544 58 22.4038 58.0267 22.432C58.06 22.4673 58.0999 22.4814 58.1399 22.4814H59.5054C59.5453 22.4814 59.592 22.4602 59.6186 22.432C59.6519 22.3967 59.6652 22.3544 59.6652 22.3121V19.3923C59.6652 19.35 59.6852 19.3006 59.7119 19.2724C59.7452 19.2371 59.7851 19.223 59.8251 19.223H61.7634ZM61.6568 13.207C62.7759 13.207 63.5952 14.138 63.5952 15.4145C63.5952 16.6911 62.7692 17.622 61.6568 17.622H59.8251C59.7851 17.622 59.7385 17.6009 59.7119 17.5727C59.6786 17.5374 59.6652 17.4951 59.6652 17.4528V13.3833C59.6652 13.341 59.6852 13.2917 59.7119 13.2635C59.7452 13.2282 59.7851 13.2141 59.8251 13.2141H61.6568V13.207ZM65.6867 20.4643C65.6734 20.1258 65.74 19.7872 65.8799 19.4769C66.0197 19.1666 66.2329 18.9056 66.4927 18.7082C67.0255 18.285 67.8448 18.0664 69.0638 18.017L70.356 17.9676V17.5656C70.356 16.7616 69.8431 16.416 69.0238 16.416C68.2045 16.416 67.685 16.7263 67.5584 17.2271C67.5518 17.2623 67.5251 17.2906 67.4985 17.3188C67.4718 17.3399 67.4385 17.354 67.3986 17.347H66.1263C66.1263 17.347 66.0797 17.347 66.0597 17.3329C66.0397 17.3258 66.0197 17.3047 66.0064 17.2906C65.9931 17.2694 65.9798 17.2482 65.9731 17.2271C65.9731 17.2059 65.9665 17.1777 65.9731 17.1566C66.1663 15.9646 67.0988 15.0548 69.0904 15.0548C71.2019 15.0548 71.9679 16.0986 71.9679 18.0875V22.3121C71.9679 22.3121 71.9679 22.3544 71.9546 22.3756C71.948 22.3967 71.9346 22.4179 71.9213 22.432C71.908 22.4461 71.888 22.4602 71.868 22.4673C71.848 22.4743 71.8281 22.4814 71.8081 22.4814H70.5225C70.5225 22.4814 70.4826 22.4814 70.4626 22.4673C70.4426 22.4602 70.4226 22.4461 70.4093 22.432C70.396 22.4179 70.3826 22.3967 70.376 22.3756C70.3693 22.3544 70.3627 22.3333 70.3627 22.3121V21.9947C70.3627 21.9947 70.3627 21.9383 70.3427 21.9172C70.3294 21.896 70.3094 21.8748 70.2827 21.8678C70.2561 21.8607 70.2294 21.8537 70.2095 21.8678C70.1895 21.8819 70.1628 21.8889 70.1429 21.9101C69.7565 22.3544 69.1304 22.6788 68.1379 22.6788C66.6792 22.6788 65.7067 21.8748 65.7067 20.4784L65.6867 20.4643ZM70.356 19.5474V19.223L68.6841 19.3147C67.8049 19.3641 67.2853 19.752 67.2853 20.4008C67.2853 20.9932 67.7582 21.3177 68.5775 21.3177C69.6966 21.3177 70.356 20.6759 70.356 19.5474ZM73.2468 24.4491V25.6763C73.2468 25.7186 73.2535 25.7538 73.2801 25.7891C73.3001 25.8244 73.3334 25.8455 73.3667 25.8596C73.5932 25.9231 73.8263 25.9584 74.0661 25.9513C75.3117 25.9513 76.4507 25.4717 77.1035 23.5886L79.9677 15.4921C79.9677 15.4921 79.981 15.4357 79.9677 15.4145C79.9677 15.3863 79.9544 15.3581 79.9411 15.337C79.9277 15.3158 79.9077 15.2946 79.8811 15.2805C79.8545 15.2664 79.8345 15.2594 79.8078 15.2594H78.4757C78.4423 15.2594 78.409 15.2735 78.3824 15.2946C78.3558 15.3158 78.3358 15.344 78.3225 15.3793L76.7438 20.5066C76.7438 20.5066 76.7105 20.5701 76.6839 20.5912C76.6572 20.6124 76.6239 20.6194 76.5906 20.6194C76.5573 20.6194 76.524 20.6053 76.4974 20.5912C76.4707 20.5701 76.4507 20.5419 76.4374 20.5066L74.619 15.3652C74.619 15.3652 74.5857 15.3017 74.559 15.2805C74.5324 15.2594 74.4991 15.2523 74.4658 15.2523H73.1602C73.1602 15.2523 73.107 15.2594 73.087 15.2735C73.067 15.2876 73.047 15.3017 73.027 15.3299C73.0137 15.3511 73.0004 15.3793 73.0004 15.4075C73.0004 15.4357 73.0004 15.4639 73.007 15.4851L75.6847 22.7705C75.6981 22.8058 75.6981 22.8481 75.6847 22.8904L75.5981 23.1725C75.4982 23.5252 75.2917 23.8284 75.012 24.04C74.7322 24.2516 74.3858 24.3574 74.0461 24.3362C73.8463 24.3362 73.6465 24.3151 73.4467 24.2798C73.42 24.2798 73.4 24.2798 73.3734 24.2798C73.3468 24.2798 73.3268 24.301 73.3068 24.3151C73.2868 24.3292 73.2735 24.3503 73.2602 24.3786C73.2468 24.3997 73.2468 24.4279 73.2468 24.4561V24.4491Z" fill="#5A31F4"/>
</svg>
