<svg width="75" height="36" viewBox="0 0 75 36" fill="none" xmlns="http://www.w3.org/2000/svg">
<path d="M49.1599 26.6261H48.6005L48.1081 28.6414H48.7265C49.0569 28.6414 49.4025 28.1622 49.5169 27.6927C49.658 27.115 49.6602 26.6261 49.1599 26.6261Z" fill="#E30520"/>
<path d="M55.2288 26.4794C54.6032 26.4794 54.3311 27.2619 53.8891 29.0724C53.4471 30.8818 53.3362 31.6643 53.9618 31.6643C54.5874 31.6643 54.8595 30.8818 55.3015 29.0724C55.7435 27.2619 55.8544 26.4794 55.2288 26.4794Z" fill="#E30520"/>
<path fill-rule="evenodd" clip-rule="evenodd" d="M41.5006 22.9373H72.3496C72.9126 22.9373 73.2308 23.5256 73.0565 24.2434L70.6975 33.9873C70.524 34.706 69.9207 35.2934 69.3578 35.2934H38.5088C37.9458 35.2934 37.6276 34.706 37.8018 33.9873L40.1609 24.2434C40.3344 23.5256 40.9376 22.9373 41.5006 22.9373ZM48.667 29.7278C49.9693 29.7278 50.4566 28.4555 50.6524 27.6537C50.9677 26.362 50.7712 25.5399 49.7562 25.5399H47.7549L46.0294 32.6039H47.1401L47.8427 29.7278H48.667ZM56.4272 29.0724L56.4273 29.0719C56.8837 27.2035 57.3185 25.423 55.4871 25.423C53.6551 25.423 53.2195 27.2035 52.7631 29.0719L52.7627 29.0734C52.3115 30.9219 51.8724 32.7207 53.704 32.7207C55.5352 32.7207 55.9751 30.9213 56.4272 29.0724ZM61.8178 27.5455H62.899C63.3338 26.0683 62.9545 25.423 61.8732 25.423C60.5191 25.423 59.9065 26.3031 59.6365 27.4092C59.3474 28.5922 59.9227 29.1346 60.426 29.6091C60.8176 29.9782 61.1656 30.3063 61.0295 30.863C60.9122 31.3422 60.6494 31.6648 60.2744 31.6648C59.6639 31.6648 59.7805 31.0977 59.9454 30.4224H58.8339C58.4768 31.6455 58.4711 32.7207 59.8467 32.7207C60.6933 32.7207 61.7537 32.5063 62.2008 30.6765C62.5058 29.4267 61.922 28.9175 61.4115 28.4722C61.0148 28.1262 60.6624 27.8188 60.8056 27.2324C60.9251 26.7436 61.203 26.4789 61.5629 26.4789C62.0121 26.4789 61.9466 27.017 61.8178 27.5455ZM67.7302 26.7146H68.9662L69.2534 25.5399H65.6706L65.3833 26.7146H66.6194L65.1803 32.6039H66.2911L67.7302 26.7146Z" fill="#E30520"/>
<path d="M24.641 32.0289L24.6496 31.8154C24.8771 29.1519 29.0877 25.0828 32.8332 21.9527C33.7338 21.2011 34.5408 20.5345 35.2585 19.9432C35.6487 19.0796 35.8826 18.4246 36.0561 17.871C36.0885 17.7705 36.1079 17.671 36.113 17.6034L36.1151 17.5667L36.1065 17.4691L36.095 17.4575H36.0885L36.01 17.5077C35.275 18.2265 33.8993 19.666 33.078 19.6747L32.9693 19.6669C32.6482 19.6244 32.2933 19.3327 32.2947 18.6042L32.3041 18.3772C32.361 17.6845 32.6698 17.1406 32.9016 16.7107L32.957 16.5784V16.5745V16.5678L32.9534 16.5668H32.9477C32.9289 16.5668 32.8886 16.5851 32.8166 16.6421C30.454 18.4999 29.1618 19.5752 28.5665 19.5829L28.5161 19.579C28.3282 19.5539 28.1763 19.3549 28.1777 19.0467L28.1821 18.9404C28.226 18.4217 28.5586 17.7502 28.8832 17.1252C29.2086 16.5059 29.5275 15.9214 29.5462 15.6606L29.5469 15.6316L29.4793 15.5408L29.457 15.5398C29.2079 15.534 28.4239 16.133 27.3153 17.2749C26.7041 17.9019 26.1959 18.4883 25.8057 18.9192C25.4112 19.3481 25.1506 19.6264 24.9822 19.6341L24.9491 19.6312C24.749 19.5974 24.6115 19.3269 24.6093 19.096L24.6129 19.011C24.6683 18.3724 25.2788 17.3957 25.8828 16.447C26.4867 15.507 27.0871 14.5873 27.1145 14.1844L27.1159 14.1497C27.1138 14.0386 27.0677 14.0096 26.9971 13.9951L26.9647 13.9922C26.7257 13.9893 26.2175 14.339 25.137 15.2645C21.5772 18.3028 20.5722 19.6766 19.961 19.6911L19.9236 19.6882C19.681 19.6486 19.4233 19.2863 19.4204 18.8525L19.4233 18.7723C19.5147 17.7512 21.1294 15.8905 21.9479 14.7834C22.22 14.4231 22.4043 14.1255 22.4057 14.0366L22.4065 14.0308C22.4014 13.9033 22.3712 13.885 22.3107 13.8695L22.2834 13.8685C21.8097 13.8656 19.316 15.3041 17.2334 16.5929C17.2536 17.0324 17.2665 17.5348 17.2672 18.1396C17.268 18.4188 17.2572 18.6941 17.2348 18.9636C16.8166 24.0327 12.552 27.2313 9.23337 27.2449C9.07356 27.2458 8.91447 27.2342 8.76041 27.2111C7.61292 27.041 6.64468 26.2527 6.6382 25.1214L6.64324 24.9833C6.74835 23.7747 8.10532 22.3188 9.71281 20.9431C11.3217 19.5723 13.1862 18.299 14.3092 17.5232C14.7268 17.2334 15.2847 16.8769 15.9203 16.4866C15.8505 15.7089 15.7533 15.1003 15.7497 13.0812C15.749 12.8976 15.7562 12.7141 15.7699 12.5305C15.4071 12.8368 15.0421 13.1469 14.6764 13.457C12.4764 15.3254 9.40614 18.1917 6.85489 20.9924C4.30219 23.7873 2.26997 26.5367 2.14759 28.1008L2.14111 28.2593C2.14327 28.5404 2.27141 28.6679 2.39379 28.6872L2.42331 28.6901C2.61479 28.6892 2.77389 28.6003 3.00353 28.3675C3.08776 28.2834 3.15974 28.2457 3.22237 28.2535C3.29364 28.2621 3.33899 28.3472 3.33755 28.438L3.33611 28.467C3.32676 28.5684 3.27708 28.6795 3.23245 28.7684C3.06472 29.0862 2.57016 29.5412 2.03673 29.5461L1.88843 29.5354C1.34061 29.4572 0.907959 28.9075 0.907959 28.0525L0.915876 27.8506C1.05193 26.2479 2.69398 23.9399 4.78307 21.601C6.87289 19.2641 9.4119 16.9117 11.3455 15.2732C13.0214 13.8531 14.5598 12.5643 15.9427 11.4041C17.0894 6.33793 22.9852 1.91136 24.8022 1.89493L24.9764 1.90749C25.4436 1.97125 25.6855 2.34996 25.6834 2.833L25.6812 2.89193C25.6042 3.69957 24.2378 5.13323 22.1948 6.99873C20.7802 8.28652 19.041 9.76559 17.188 11.3326C17.1161 11.6456 17.0649 11.9615 17.039 12.2793C17.0254 12.4455 17.0189 12.6107 17.0189 12.7769C17.0218 14.0038 17.1117 14.737 17.183 15.7292C17.9266 15.2916 18.7135 14.8423 19.4729 14.4231C21.4087 13.3555 23.1443 12.4793 23.5446 12.4745L23.5899 12.4774C23.7958 12.5073 24.0233 12.744 24.0247 13.1179L24.0219 13.1884C23.9427 14.0666 22.5857 15.5766 21.8961 16.5156C21.6664 16.8218 21.5124 17.0798 21.5095 17.1735V17.1822L21.5649 17.2672L21.5743 17.2682C21.6873 17.2749 22.1941 16.8866 22.7866 16.3823C23.3848 15.878 24.0895 15.2558 24.6604 14.7882C25.9706 13.7178 27.2685 12.7904 27.9222 12.7846L28.0496 12.7923C28.3779 12.8348 28.506 13.1073 28.5024 13.4106L28.4952 13.5816C28.447 14.1555 28.1518 14.6907 27.3628 15.9427C27.252 16.1137 27.1584 16.2538 27.1548 16.3388L27.1541 16.3514L27.1908 16.4093L27.2023 16.4103L27.2117 16.4055L27.2477 16.3842L27.3664 16.2992C27.4622 16.2258 27.5896 16.1224 27.7314 16.0065C28.0165 15.7727 28.362 15.4828 28.6413 15.2597C29.2504 14.7757 29.8407 14.3255 30.1646 14.3207L30.2596 14.3274C30.5958 14.3748 30.8399 14.7032 30.8406 15.1283L30.8377 15.1892C30.8067 15.5379 30.5541 16.0132 30.3043 16.4934C30.0545 16.9706 29.8075 17.4527 29.7859 17.7454L29.7838 17.7937C29.7903 17.9106 29.8003 17.929 29.8788 17.9492L29.9184 17.9512C30.107 17.957 30.8384 17.4227 31.5957 16.817C32.3574 16.2103 33.1643 15.5321 33.5639 15.2413C35.3679 13.9255 36.2109 13.2357 37.4793 13.2309C37.5902 13.2309 37.7068 13.2386 37.8227 13.256C38.1056 13.2976 38.3878 13.3923 38.5836 13.5661C38.7096 13.6753 38.7449 13.7999 38.7427 13.9081L38.742 13.9275C38.729 14.0598 38.6232 14.1458 38.4799 14.1303C37.5679 14.0386 36.5111 14.4665 35.3355 15.5302C34.309 16.4567 33.4638 17.6275 33.4141 18.2932L33.412 18.3627C33.4149 18.5076 33.4573 18.6014 33.5639 18.6197L33.5941 18.6216C33.7914 18.6255 34.6048 18.2091 35.9884 16.5784C36.3945 16.1002 37.0035 15.1486 37.3058 14.6762C37.4361 14.4694 37.5765 14.4694 37.6298 14.4704L37.66 14.4733C37.8666 14.5119 37.9213 14.8298 37.9235 15.1331L37.9163 15.2887C37.8616 15.9427 37.4915 17.1474 36.9329 18.5704C38.2748 17.473 39.1422 16.7648 39.6037 16.3398C40.9966 15.0597 42.2658 13.3845 44.1 13.3758C44.2296 13.3749 44.3477 13.3836 44.4542 13.4C45.0884 13.4966 45.3361 13.8328 45.3433 14.0724L45.3404 14.1419C45.3318 14.2588 45.2922 14.3477 45.2267 14.3941C45.1626 14.4395 45.0812 14.4453 44.9855 14.4318L44.8271 14.3941C44.7616 14.3748 44.6954 14.3612 44.627 14.3506C43.8207 14.2308 42.8295 14.7757 42.0311 15.5186C41.2313 16.2586 40.6259 17.2034 40.5777 17.8256L40.5748 17.9135C40.5784 18.1125 40.6338 18.1917 40.7483 18.213L40.7857 18.2169C41.3947 18.2217 43.0476 16.6769 44.1317 15.2819C44.4708 14.8472 44.6558 14.7873 44.7911 14.7882L44.8163 14.7892C44.9905 14.823 45.1252 15.08 45.1302 15.2684L45.1295 15.2954C45.1057 15.5321 44.8602 15.9263 44.614 16.3755C44.3671 16.817 44.1202 17.3029 44.0957 17.6275L44.0928 17.6874C44.0972 17.8468 44.1396 17.8922 44.2167 17.9087L44.2426 17.9106C44.496 17.9203 45.4765 16.9793 46.5145 15.9253C47.5691 14.8607 48.5849 13.7111 49.394 12.8261C50.209 11.9422 50.7949 11.3219 51.0598 11.3113L51.147 11.3171C51.4205 11.3538 51.522 11.6118 51.5184 11.8485L51.5177 11.8707C51.4903 12.1354 51.1016 12.8136 50.4328 14.1429C50.386 14.2347 50.3515 14.3168 50.3472 14.3748V14.4028L50.3875 14.4569H50.4012C50.4724 14.4627 50.7568 14.2598 51.0915 14.0559C51.4306 13.8511 51.8366 13.6454 52.2066 13.6434L52.3837 13.655C52.838 13.7169 53.0791 14.0859 53.0762 14.6607L53.0683 14.8568C52.9935 15.7505 52.4377 16.5977 51.9993 17.1938L51.9259 17.2933L51.9122 17.3165V17.3184L51.9201 17.3203L51.9316 17.3213L52.0641 17.2643C52.3578 17.0827 57.0521 13.3961 58.6265 13.3855L58.7115 13.3913C59.008 13.4386 59.1391 13.7043 59.1412 13.855L59.1405 13.8946C59.1333 13.9864 59.0944 14.0366 59.0685 14.0724L59.016 14.2231L59.0138 14.2801C59.0131 14.3767 59.0678 14.4173 59.1506 14.5061C59.2298 14.5902 59.3169 14.7245 59.3162 14.9853L59.3133 15.0597C59.2953 15.2606 59.2218 15.4655 59.1743 15.5611C60.491 14.4453 61.0899 13.9178 61.8113 13.1894L61.8149 13.1362C61.8825 12.2919 62.2713 11.8977 62.6305 11.8977L62.6953 11.9016C62.9386 11.9364 63.097 12.1933 63.0962 12.5228L63.0941 12.574C63.0675 12.8522 62.8868 13.086 62.8738 13.2976L62.8724 13.3227C62.8608 13.7053 63.0998 13.7951 63.3813 13.9275C63.6542 14.0502 63.9615 14.2231 63.9615 14.7795L63.9579 14.8539C63.9054 15.422 63.3532 15.8799 62.6218 16.7252C62.1302 17.2865 61.8098 17.6952 61.7781 18.1154L61.7753 18.1975C61.7724 18.4477 61.9747 18.5965 62.0841 18.611L62.1035 18.6129C62.4052 18.612 63.1416 18.4516 64.5648 17.6314C64.567 17.529 64.572 17.4266 64.5799 17.3252C64.8168 14.5409 67.3824 12.5179 68.2103 12.5054C68.283 12.5054 68.3521 12.5112 68.4198 12.5208C69.1044 12.6223 69.501 13.2271 69.5032 13.7748L69.4974 13.9159C69.3779 15.2732 67.7107 16.6547 65.9095 17.7319C65.7728 17.814 65.6353 17.8922 65.4978 17.9705C65.51 18.7395 65.929 19.3085 66.993 19.4699C67.1823 19.4979 67.3918 19.5124 67.6221 19.5114C69.4226 19.5056 72.1084 18.4941 72.1084 18.4941C73.3488 18.043 73.32 18.07 73.32 18.07C73.613 17.9618 73.8772 18.1222 73.8772 18.1222C73.9823 18.1792 74.0651 18.2806 74.0679 18.412L74.0665 18.4362C74.0168 18.896 72.9723 19.296 72.9723 19.296C71.1272 20.0679 69.4564 20.3316 68.0087 20.3374C67.692 20.3384 67.3925 20.3181 67.1132 20.2765C65.8073 20.0862 64.924 19.4341 64.6526 18.4188C63.2762 19.1095 62.0099 19.55 61.4823 19.5529L61.3073 19.5413C60.8596 19.4786 60.4946 19.123 60.4953 18.4255L60.5025 18.2429C60.5716 17.416 61.0914 16.7078 61.5931 16.1185C62.0956 15.536 62.5858 15.0452 62.5995 14.767L62.6002 14.7448C62.5974 14.5477 62.5297 14.483 62.426 14.4018C62.3281 14.3284 62.2007 14.2579 62.1172 14.0849C61.8199 14.1226 60.7142 15.0201 59.3694 16.2596C58.6092 16.9523 56.4755 19.4399 55.3064 19.4505L55.1689 19.4409C54.6988 19.3752 54.3648 18.9231 54.3663 18.1917L54.3749 17.9715C54.4347 17.243 54.7845 16.6924 55.0602 16.275C55.1401 16.1552 55.2877 15.9698 55.3187 15.8983L55.3223 15.8925L55.3064 15.877L55.3007 15.876L55.0905 15.962C52.8005 17.4053 50.3882 19.5829 49.1212 19.5925L49.0413 19.5868C48.8001 19.5549 48.4992 19.3336 48.4992 18.7897L48.5021 18.7125C48.5079 18.6255 48.5338 18.5521 48.5863 18.5163C48.6367 18.4816 48.6986 18.4796 48.7807 18.4903C50.3594 18.7115 51.8762 15.7814 51.9439 14.8665L51.9467 14.7998C51.9417 14.6124 51.8956 14.5313 51.7718 14.5081L51.7286 14.5061C51.3867 14.5023 50.2334 15.0056 48.8628 17.2981C48.5597 17.7705 43.6256 26.786 43.6256 26.786C43.1455 27.6014 42.9382 27.8612 42.6524 27.8699L42.6178 27.867C42.1787 27.7888 42.0326 27.2893 42.0959 26.9193C42.1708 26.4807 42.4904 25.9484 42.6776 25.617L49.7727 14.0125C49.9851 13.57 49.7165 13.7159 49.7165 13.7159C49.5877 13.77 49.0823 14.2028 48.7915 14.5206L47.0379 16.3475C45.2238 18.2536 44.2865 19.2042 43.3794 19.21L43.2751 19.2032C42.8331 19.1375 42.684 18.6458 42.6848 18.3154L42.6905 18.1685C42.7035 18.0091 42.7395 17.8633 42.7978 17.7213L42.8223 17.6382L42.7323 17.701C41.6409 18.6439 40.7368 19.324 40.1026 19.3288L39.973 19.3201C39.4849 19.2506 39.22 18.7453 39.2221 18.1009L39.2315 17.8749C39.2423 17.7386 39.2603 17.6266 39.2682 17.5532V17.5512L39.2668 17.5493L39.2466 17.5396C39.2358 17.5367 39.1941 17.5493 39.1264 17.5995C38.4821 18.0748 37.5607 18.8197 36.4319 19.7858C35.64 21.6261 34.6199 23.6539 33.5963 25.2837C30.981 29.4321 27.3844 33.1022 25.5761 33.1167L25.4012 33.1041L25.3889 33.1022C25.0074 33.0462 24.6395 32.7544 24.641 32.0289ZM31.7642 23.9757C28.5945 26.9232 25.7741 30.6001 25.6726 31.9506L25.669 32.0318C25.674 32.2752 25.7525 32.3516 25.8684 32.3738L25.908 32.3767C26.2261 32.3825 27.2563 31.6038 28.5463 30.2165C29.8407 28.8302 31.4107 26.8343 32.8627 24.4036C33.5516 23.2492 34.0908 22.2821 34.5177 21.4619C33.6654 22.2222 32.7411 23.0646 31.7642 23.9757ZM11.4355 20.7741C9.54076 22.3729 7.79577 24.2007 7.70435 25.4151L7.69931 25.5281C7.70435 26.0585 7.92967 26.3561 8.53149 26.4517C8.64595 26.4681 8.77553 26.4768 8.91807 26.4768C12.002 26.4662 15.577 23.6617 15.9556 19.0148C15.9779 18.7395 15.9887 18.4574 15.9887 18.1705C15.988 17.8671 15.9837 17.6111 15.9758 17.386C15.2192 17.8758 13.2589 19.2303 11.4355 20.7741ZM23.7663 3.4909C23.3848 3.48607 21.7758 4.53716 20.2425 6.16308C19.2296 7.23253 18.2434 8.55219 17.6337 9.98199C20.1482 7.86241 21.994 6.26162 23.0191 5.15352C23.6036 4.52654 23.9168 4.04736 23.9355 3.76526L23.9369 3.72855C23.9333 3.57881 23.8873 3.51022 23.7944 3.4938L23.7663 3.4909ZM68.4154 13.5758C68.1462 13.5719 67.4465 14.082 66.8116 14.853C66.3228 15.4442 65.8656 16.1881 65.6425 16.9677C67.6704 15.6316 68.5184 14.5255 68.5688 13.827L68.5724 13.7478C68.5695 13.628 68.522 13.5932 68.4464 13.5777L68.4154 13.5758ZM58.3213 14.739C57.9844 14.7341 57.2825 15.3418 56.672 16.077C56.0587 16.8093 55.5274 17.6816 55.4929 18.1512L55.4907 18.2072C55.4914 18.3337 55.5605 18.4535 55.6613 18.468L55.6836 18.47C56.099 18.4719 56.8095 17.9029 57.4142 17.1967C58.0218 16.4924 58.5279 15.6423 58.5668 15.1331L58.5696 15.0636C58.5682 14.8906 58.4883 14.7622 58.3558 14.7409L58.3213 14.739Z" fill="#0055A3"/>
</svg>
