<svg width="64" height="25" viewBox="0 0 64 25" fill="none" xmlns="http://www.w3.org/2000/svg">
<g clip-path="url(#clip0_68_829)">
<path d="M36.4314 6.88022C36.4738 6.87975 36.516 6.88843 36.5553 6.90576C36.5946 6.92309 36.6304 6.94871 36.6604 6.98114C36.6904 7.01357 36.7142 7.05214 36.7302 7.0946C36.7463 7.13706 36.7543 7.18256 36.7539 7.22841V17.7994C36.7545 17.8417 36.7473 17.8837 36.7326 17.9228C36.7179 17.962 36.6961 17.9976 36.6684 18.0275C36.6407 18.0574 36.6078 18.081 36.5715 18.0968C36.5352 18.1127 36.4963 18.1205 36.4572 18.1198H34.4318C34.301 18.1003 34.1791 18.037 34.0835 17.9387C34.0835 17.9387 30.4455 12.5487 30.3294 12.4095C30.2305 12.2528 30.1483 12.0846 30.0843 11.9081V17.7994C30.0845 17.8428 30.0766 17.8857 30.0609 17.9256C30.0453 17.9655 30.0223 18.0016 29.9933 18.0316C29.9643 18.0616 29.93 18.0848 29.8924 18.1C29.8548 18.1152 29.8147 18.1219 29.7746 18.1198H27.5041C27.464 18.1219 27.424 18.1152 27.3864 18.1C27.3488 18.0848 27.3144 18.0616 27.2854 18.0316C27.2565 18.0016 27.2335 17.9655 27.2178 17.9256C27.2022 17.8857 27.1943 17.8428 27.1945 17.7994V7.22841C27.1943 7.18508 27.2022 7.14214 27.2178 7.10223C27.2335 7.06232 27.2565 7.02627 27.2854 6.99629C27.3144 6.9663 27.3488 6.94302 27.3864 6.92785C27.424 6.91268 27.464 6.90596 27.5041 6.90808H29.5295C29.6573 6.92484 29.7758 6.98881 29.8649 7.08914C29.8649 7.08914 33.4642 12.3816 33.619 12.6184C33.7198 12.7761 33.8062 12.944 33.877 13.1198V7.22841C33.8764 7.18615 33.8836 7.14419 33.8983 7.10501C33.913 7.06583 33.9348 7.03024 33.9625 7.00035C33.9902 6.97046 34.0232 6.94689 34.0594 6.93104C34.0957 6.91519 34.1346 6.90738 34.1738 6.90808C34.1738 6.88022 36.2895 6.88022 36.4314 6.88022ZM52.4281 22.1866C47.5001 22.1866 43.488 17.8412 43.488 12.507C43.488 7.15877 47.5001 2.81337 52.4281 2.81337C57.3433 2.81337 61.3554 7.15877 61.3554 12.507C61.3554 17.8412 57.3433 22.1866 52.4281 22.1866ZM31.9806 22.1866C27.0526 22.1866 23.0405 17.8412 23.0405 12.507C23.0405 7.15877 27.0526 2.81337 31.9806 2.81337C36.8958 2.81337 40.9079 7.15877 40.9079 12.507C40.9079 17.8412 36.8958 22.1866 31.9806 22.1866ZM11.5332 22.1866C6.60512 22.1866 2.59303 17.8412 2.59303 12.507C2.59303 7.15877 6.60512 2.81337 11.5332 2.81337C16.4483 2.81337 20.4604 7.15877 20.4604 12.507C20.4475 17.8412 16.4354 22.1866 11.5332 22.1866ZM52.4281 1.04778e-06C47.9903 1.04778e-06 44.133 2.74373 42.185 6.74095C41.2184 4.7108 39.7522 3.00757 37.9474 1.81836C36.1426 0.629161 34.0692 0 31.9548 0C29.8405 0 27.767 0.629161 25.9623 1.81836C24.1575 3.00757 22.6913 4.7108 21.7247 6.74095C20.7541 4.71129 19.2851 3.0089 17.4785 1.82C15.672 0.631095 13.5973 0.00147164 11.4816 1.04778e-06C5.17315 1.04778e-06 0 5.61281 0 12.507C0 19.3872 5.17315 25 11.5332 25C15.9581 25 19.8283 22.2563 21.7634 18.2591C22.7325 20.287 24.1993 21.9883 26.0035 23.1772C27.8077 24.366 29.8799 24.9966 31.9935 25C36.4314 25 40.2887 22.2563 42.2366 18.2591C43.2045 20.2882 44.671 21.9905 46.4755 23.1795C48.28 24.3685 50.3528 24.9984 52.4668 25C58.8268 25 64 19.3872 64 12.507C63.9613 5.61281 58.7752 1.04778e-06 52.4281 1.04778e-06ZM7.19855 7.08914C7.15941 7.08844 7.12053 7.09625 7.08424 7.1121C7.04795 7.12795 7.01498 7.15152 6.9873 7.18141C6.95962 7.21129 6.93779 7.24688 6.9231 7.28606C6.90842 7.32524 6.90119 7.36721 6.90183 7.40947V9.51254C6.90119 9.55479 6.90842 9.59676 6.9231 9.63594C6.93779 9.67512 6.95962 9.71071 6.9873 9.7406C7.01498 9.77049 7.04795 9.79405 7.08424 9.80991C7.12053 9.82576 7.15941 9.83357 7.19855 9.83287H9.54646C9.69774 9.83146 9.84869 9.81749 9.99798 9.79109V18.078C9.99734 18.1203 10.0046 18.1622 10.0193 18.2014C10.0339 18.2406 10.0558 18.2762 10.0835 18.3061C10.1111 18.3359 10.1441 18.3595 10.1804 18.3754C10.2167 18.3912 10.2556 18.399 10.2947 18.3983H12.7071C12.7463 18.399 12.7851 18.3912 12.8214 18.3754C12.8577 18.3595 12.8907 18.3359 12.9184 18.3061C12.946 18.2762 12.9679 18.2406 12.9826 18.2014C12.9972 18.1622 13.0045 18.1203 13.0038 18.078V9.79109C13.1922 9.81637 13.3817 9.83032 13.5715 9.83287H15.8162C15.8553 9.83357 15.8942 9.82576 15.9305 9.80991C15.9668 9.79405 15.9997 9.77048 16.0274 9.7406C16.0551 9.71071 16.0769 9.67512 16.0916 9.63594C16.1063 9.59676 16.1135 9.55479 16.1129 9.51254V7.40947C16.1135 7.36721 16.1063 7.32524 16.0916 7.28606C16.0769 7.24689 16.0551 7.21129 16.0274 7.18141C15.9997 7.15152 15.9668 7.12795 15.9305 7.1121C15.8942 7.09625 15.8553 7.08844 15.8162 7.08914H7.19855ZM56.7498 7.08914C56.789 7.08844 56.8279 7.09625 56.8642 7.1121C56.9004 7.12795 56.9334 7.15152 56.9611 7.18141C56.9888 7.21129 57.0106 7.24689 57.0253 7.28606C57.04 7.32524 57.0472 7.36721 57.0466 7.40947V9.51254C57.0472 9.55479 57.04 9.59676 57.0253 9.63594C57.0106 9.67512 56.9888 9.71071 56.9611 9.7406C56.9334 9.77048 56.9004 9.79405 56.8642 9.80991C56.8279 9.82576 56.789 9.83357 56.7498 9.83287H54.518C54.324 9.83068 54.1301 9.81673 53.9375 9.79109V18.078C53.9382 18.1203 53.9309 18.1622 53.9162 18.2014C53.9016 18.2406 53.8797 18.2762 53.852 18.3061C53.8244 18.3359 53.7914 18.3595 53.7551 18.3754C53.7188 18.3912 53.6799 18.399 53.6408 18.3983H51.2284C51.1892 18.399 51.1504 18.3912 51.1141 18.3754C51.0778 18.3595 51.0448 18.3359 51.0171 18.3061C50.9894 18.2762 50.9676 18.2406 50.9529 18.2014C50.9383 18.1622 50.931 18.1203 50.9317 18.078V9.79109C50.7824 9.81749 50.6314 9.83146 50.4801 9.83287H48.1322C48.0931 9.83357 48.0542 9.82576 48.0179 9.80991C47.9816 9.79405 47.9487 9.77049 47.921 9.7406C47.8933 9.71071 47.8715 9.67512 47.8568 9.63594C47.8421 9.59676 47.8349 9.55479 47.8355 9.51254V7.40947C47.8349 7.36721 47.8421 7.32524 47.8568 7.28606C47.8715 7.24688 47.8933 7.21129 47.921 7.18141C47.9487 7.15152 47.9816 7.12795 48.0179 7.1121C48.0542 7.09625 48.0931 7.08844 48.1322 7.08914H56.7498Z" fill="#FF6600"/>
</g>
<defs>
<clipPath id="clip0_68_829">
<rect width="64" height="25" fill="white"/>
</clipPath>
</defs>
</svg>
