<svg width="77" height="33" viewBox="0 0 77 33" fill="none" xmlns="http://www.w3.org/2000/svg">
<path fill-rule="evenodd" clip-rule="evenodd" d="M14.4353 25.5507H10.4379L7.4404 12.9377C7.29812 12.3575 6.99603 11.8446 6.55166 11.6029C5.44269 10.9953 4.22068 10.5118 2.88757 10.268V9.78238H9.32702C10.2158 9.78238 10.8823 10.5118 10.9934 11.359L12.5487 20.4572L16.5441 9.78238H20.4304L14.4353 25.5507ZM22.6522 25.5507H18.877L21.9856 9.78238H25.7608L22.6522 25.5507ZM30.6449 14.1507C30.756 13.3014 31.4226 12.8158 32.2002 12.8158C33.4222 12.6939 34.7534 12.9377 35.8643 13.5431L36.5309 10.1482C35.4199 9.66255 34.1979 9.4187 33.089 9.4187C29.4249 9.4187 26.7587 11.6029 26.7587 14.6342C26.7587 16.9402 28.6472 18.1511 29.9803 18.8805C31.4226 19.6079 31.978 20.0935 31.8669 20.8208C31.8669 21.9119 30.756 22.3975 29.6471 22.3975C28.3139 22.3975 26.9808 22.0338 25.7608 21.4263L25.0942 24.8234C26.4273 25.4288 27.8696 25.6726 29.2027 25.6726C33.3111 25.7925 35.8643 23.6104 35.8643 20.3352C35.8643 16.2108 30.6449 15.969 30.6449 14.1507ZM49.0767 25.5507L46.0792 9.78238H42.8594C42.1929 9.78238 41.5263 10.268 41.3041 10.9953L35.7534 25.5507H39.6397L40.4154 23.2467H45.1904L45.6348 25.5507H49.0767ZM43.4148 14.0289L44.5237 19.9717H41.4151L43.4148 14.0289Z" fill="#172B85"/>
<path fill-rule="evenodd" clip-rule="evenodd" d="M60.5454 23.6872C59.0995 24.993 57.2241 25.7812 55.1747 25.7812C50.6019 25.7812 46.8949 21.8567 46.8949 17.0156C46.8949 12.1745 50.6019 8.25 55.1747 8.25C57.2241 8.25 59.0995 9.03827 60.5454 10.344C61.9912 9.03827 63.8667 8.25001 65.9161 8.25001C70.4889 8.25001 74.1958 12.1745 74.1958 17.0156C74.1958 21.8567 70.4889 25.7812 65.9161 25.7812C63.8667 25.7812 61.9912 24.993 60.5454 23.6872Z" fill="#ED0006"/>
<path fill-rule="evenodd" clip-rule="evenodd" d="M60.5454 23.6872C62.3257 22.0795 63.4545 19.6871 63.4545 17.0156C63.4545 14.3441 62.3257 11.9518 60.5454 10.344C61.9912 9.03825 63.8667 8.25 65.9161 8.25C70.4889 8.25 74.1958 12.1745 74.1958 17.0156C74.1958 21.8567 70.4889 25.7812 65.9161 25.7812C63.8667 25.7812 61.9912 24.993 60.5454 23.6872Z" fill="#F9A000"/>
<path fill-rule="evenodd" clip-rule="evenodd" d="M60.5454 23.6872C62.3256 22.0794 63.4545 19.687 63.4545 17.0156C63.4545 14.3441 62.3256 11.9518 60.5454 10.344C58.7652 11.9518 57.6364 14.3441 57.6364 17.0156C57.6364 19.687 58.7652 22.0794 60.5454 23.6872Z" fill="#FF5E00"/>
</svg>
